<svg width="1440" height="820" viewBox="0 0 1440 820" fill="none" xmlns="http://www.w3.org/2000/svg">
<path d="M1449.9 710.176C1375.83 737.988 1272.14 797.246 1449.9 811.785V710.176Z" fill="#33323a"/>
<path d="M1470.43 717.313C1396.36 745.125 1292.67 790.256 1470.43 804.795V717.313Z" fill="#161616"/>
<path d="M1490 722.758C1415.93 747.084 1312.24 786.56 1490 799.277V722.758Z" fill="#33323a"/>
<path d="M1474.4 735.119C1426.99 752.802 1360.6 781.498 1474.4 790.742V735.119Z" fill="#161616"/>
<circle r="0.294304" transform="matrix(-1 0 0 1 1379.64 780.588)" fill="#33323a"/>
<circle r="0.294304" transform="matrix(-1 0 0 1 1351.82 714.517)" fill="#33323a"/>
<circle r="0.294304" transform="matrix(-1 0 0 1 1315.18 792.213)" fill="#33323a"/>
<circle r="0.294304" transform="matrix(-1 0 0 1 1406.86 808.842)" fill="#33323a"/>
<circle r="0.294304" transform="matrix(-1 0 0 1 1381.7 728.35)" fill="#33323a"/>
<circle r="0.294304" transform="matrix(-1 0 0 1 1322.38 752.994)" fill="#33323a"/>
<circle r="0.294304" transform="matrix(-1 0 0 1 1369.04 744.536)" fill="#33323a"/>
<circle cx="1370.88" cy="786.107" r="0.220728" fill="#161616"/>
<circle cx="1400.75" cy="796.407" r="0.220728" fill="#161616"/>
<circle cx="1408.99" cy="719.888" r="2.57516" fill="#33323a"/>
<circle cx="1386" cy="757.961" r="3.75237" transform="rotate(18.3001 1386 757.961)" fill="#33323a"/>
<path d="M1387.18 754.399C1385.21 753.748 1383.11 754.757 1382.44 756.783C1382.1 757.801 1382.11 758.544 1382.53 759.528C1382.7 759.039 1388.41 755.117 1388.41 755.117C1388.41 755.117 1388.22 754.745 1387.18 754.399Z" fill="#161616"/>
<circle cx="1371.17" cy="795.083" r="0.515032" fill="#161616"/>
<circle cx="1399.87" cy="773.304" r="0.36788" fill="#161616"/>
<circle cx="1417.23" cy="735.045" r="0.515032" fill="#161616"/>
<rect x="1403.03" y="750.46" width="0.222598" height="0.222598" rx="0.111299" transform="rotate(-24.4476 1403.03 750.46)" fill="#33323a"/>
<rect x="1359.03" y="794.9" width="0.44653" height="0.44653" rx="0.223265" transform="rotate(-24.4476 1359.03 794.9)" fill="#33323a"/>
<rect x="1438.06" y="819.033" width="0.44653" height="0.44653" rx="0.223265" transform="rotate(-24.4476 1438.06 819.033)" fill="#33323a"/>
<rect x="1304" y="722.943" width="0.44653" height="0.44653" rx="0.223265" transform="rotate(-24.4476 1304 722.943)" fill="#33323a"/>
<rect x="1375.19" y="757.122" width="0.387391" height="0.387391" rx="0.193696" transform="rotate(35.3063 1375.19 757.122)" fill="#161616"/>
<rect x="1386.19" y="791.32" width="0.461095" height="0.461095" rx="0.230547" transform="rotate(30.4542 1386.19 791.32)" fill="#161616"/>
<rect x="1433.94" y="807.561" width="0.461095" height="0.461095" rx="0.230547" transform="rotate(-24.4476 1433.94 807.561)" fill="#161616"/>
<rect x="1438.35" y="743.844" width="0.461095" height="0.461095" rx="0.230547" transform="rotate(-24.4476 1438.35 743.844)" fill="#161616"/>
<path d="M1434.6 754.692C1434.72 754.642 1434.84 754.73 1434.83 754.851C1434.81 754.972 1434.68 755.034 1434.58 754.963C1434.48 754.892 1434.49 754.742 1434.6 754.692Z" fill="#33323a"/>
<path d="M1382.05 769.936C1382.12 770.054 1382.1 770.198 1382.01 770.294C1381.91 770.39 1381.77 770.415 1381.65 770.357C1381.53 770.3 1381.46 770.171 1381.48 770.04C1381.5 769.908 1381.6 769.803 1381.73 769.779C1381.86 769.756 1381.99 769.819 1382.05 769.936Z" fill="#33323a"/>
<path d="M1427.25 715.034C1427.39 715.033 1427.5 715.118 1427.55 715.245C1427.59 715.371 1427.54 715.509 1427.44 715.588C1427.33 715.667 1427.18 715.667 1427.07 715.59C1426.97 715.512 1426.92 715.374 1426.96 715.247C1427 715.121 1427.12 715.035 1427.25 715.034Z" fill="#33323a"/>
<path d="M1416.88 768.538C1416.92 768.588 1416.93 768.66 1416.89 768.716C1416.86 768.773 1416.79 768.801 1416.73 768.786C1416.66 768.77 1416.62 768.716 1416.61 768.65C1416.61 768.584 1416.64 768.523 1416.7 768.497C1416.76 768.472 1416.83 768.488 1416.88 768.538Z" fill="#33323a"/>
<path d="M1400.03 731.221C1400.16 731.22 1400.28 731.305 1400.32 731.431C1400.36 731.557 1400.32 731.696 1400.21 731.775C1400.11 731.853 1399.96 731.854 1399.85 731.777C1399.74 731.699 1399.7 731.561 1399.74 731.434C1399.78 731.308 1399.9 731.221 1400.03 731.221Z" fill="#33323a"/>
<path d="M1423.88 780.41C1423.94 780.49 1423.93 780.595 1423.87 780.67C1423.81 780.744 1423.71 780.771 1423.62 780.736C1423.53 780.701 1423.47 780.613 1423.48 780.517C1423.48 780.421 1423.55 780.34 1423.64 780.315C1423.73 780.291 1423.83 780.329 1423.88 780.41Z" fill="#33323a"/>
<path d="M1426.22 795.379C1426.36 795.378 1426.47 795.463 1426.52 795.589C1426.56 795.716 1426.51 795.854 1426.41 795.933C1426.3 796.012 1426.15 796.012 1426.04 795.935C1425.94 795.857 1425.89 795.719 1425.93 795.592C1425.97 795.466 1426.09 795.38 1426.22 795.379Z" fill="#33323a"/>
<path d="M1391.64 810.388C1391.77 810.388 1391.89 810.473 1391.93 810.599C1391.98 810.725 1391.93 810.864 1391.82 810.943C1391.72 811.021 1391.57 811.022 1391.46 810.944C1391.36 810.867 1391.31 810.728 1391.35 810.602C1391.39 810.475 1391.51 810.389 1391.64 810.388Z" fill="#33323a"/>
<path d="M1356.72 769.092C1356.83 769.091 1356.92 769.158 1356.95 769.256C1356.98 769.355 1356.95 769.463 1356.87 769.524C1356.78 769.585 1356.67 769.586 1356.59 769.525C1356.5 769.465 1356.47 769.357 1356.5 769.258C1356.53 769.16 1356.62 769.093 1356.72 769.092Z" fill="#161616"/>
<path d="M1360.01 781.191C1360.13 781.139 1360.26 781.231 1360.24 781.356C1360.23 781.482 1360.09 781.546 1359.98 781.473C1359.88 781.399 1359.9 781.242 1360.01 781.191Z" fill="#161616"/>
<circle r="0.706022" transform="matrix(-1 0 0 1 121.448 180.328)" fill="#33323a"/>
<circle r="0.706022" transform="matrix(-1 0 0 1 276.419 162.678)" fill="#33323a"/>
<circle r="0.706022" transform="matrix(-1 0 0 1 54.7285 21.8264)" fill="#33323a"/>
<circle r="0.706022" transform="matrix(-1 0 0 1 186.755 248.107)" fill="#33323a"/>
<circle r="0.706022" transform="matrix(-1 0 0 1 126.39 55.0095)" fill="#33323a"/>
<circle r="0.706022" transform="matrix(-1 0 0 1 96.0309 93.8407)" fill="#33323a"/>
<circle cx="100.443" cy="193.566" r="0.529517" fill="#161616"/>
<circle cx="273.066" cy="23.768" r="0.529517" fill="#161616"/>
<circle cx="172.105" cy="218.277" r="0.529517" fill="#161616"/>
<circle cx="191.873" cy="34.7114" r="6.1777" fill="#33323a"/>
<circle cx="136.709" cy="126.046" r="9.00179" transform="rotate(18.3001 136.709 126.046)" fill="#33323a"/>
<path d="M139.535 117.5C134.815 115.939 129.769 118.36 128.162 123.22C127.354 125.663 127.379 127.444 128.401 129.806C128.789 128.632 142.498 119.223 142.498 119.223C142.498 119.223 142.049 118.331 139.535 117.5Z" fill="#161616"/>
<circle cx="101.149" cy="215.1" r="1.23554" fill="#161616"/>
<circle cx="169.987" cy="162.854" r="0.882528" fill="#161616"/>
<circle cx="211.642" cy="71.0715" r="1.23554" fill="#161616"/>
<rect x="177.576" y="108.052" width="0.534004" height="0.534004" rx="0.265094" transform="rotate(-24.4476 177.576 108.052)" fill="#33323a"/>
<rect x="72.0261" y="214.661" width="1.07121" height="1.07121" rx="0.531777" transform="rotate(-24.4476 72.0261 214.661)" fill="#33323a"/>
<rect x="261.593" y="272.555" width="1.07121" height="1.07121" rx="0.531777" transform="rotate(-24.4476 261.593 272.555)" fill="#33323a"/>
<rect x="110.774" y="124.034" width="0.929335" height="0.929335" rx="0.464667" transform="rotate(35.3063 110.774 124.034)" fill="#161616"/>
<rect x="137.163" y="206.074" width="1.10615" height="1.10615" rx="0.553073" transform="rotate(30.4542 137.163 206.074)" fill="#161616"/>
<rect x="251.709" y="245.034" width="1.10615" height="1.10615" rx="0.553073" transform="rotate(-24.4476 251.709 245.034)" fill="#161616"/>
<rect x="262.299" y="92.1805" width="1.10615" height="1.10615" rx="0.553073" transform="rotate(-24.4476 262.299 92.1805)" fill="#161616"/>
<path d="M272.377 7.7107C272.643 7.59103 272.938 7.80341 272.909 8.09299C272.88 8.38257 272.548 8.53217 272.312 8.36226C272.076 8.19235 272.112 7.83037 272.377 7.7107Z" fill="#33323a"/>
<path d="M253.315 118.203C253.58 118.084 253.875 118.296 253.846 118.585C253.817 118.875 253.486 119.025 253.249 118.855C253.013 118.685 253.049 118.323 253.315 118.203Z" fill="#33323a"/>
<path d="M127.284 154.839C127.414 155.082 127.372 155.38 127.182 155.579L127.08 155.685C126.89 155.883 126.593 155.936 126.346 155.816L126.214 155.753C125.966 155.633 125.824 155.367 125.861 155.094L125.881 154.949C125.919 154.677 126.127 154.459 126.398 154.411L126.542 154.385C126.813 154.336 127.085 154.468 127.214 154.71L127.284 154.839Z" fill="#33323a"/>
<path d="M235.75 23.0658C236.025 23.0644 236.27 23.2404 236.357 23.5016L236.402 23.6407C236.489 23.902 236.397 24.1891 236.175 24.3519L236.057 24.4386C235.835 24.6014 235.534 24.6029 235.311 24.4422L235.192 24.3567C234.968 24.1961 234.874 23.9099 234.957 23.6478L235.002 23.5083C235.086 23.2462 235.329 23.0678 235.604 23.0665L235.75 23.0658Z" fill="#33323a"/>
<path d="M210.813 151.448C210.902 151.551 210.914 151.7 210.843 151.817L210.806 151.879C210.735 151.995 210.597 152.053 210.464 152.022L210.393 152.005C210.261 151.974 210.163 151.861 210.152 151.725L210.146 151.652C210.134 151.516 210.212 151.388 210.338 151.336L210.405 151.308C210.531 151.255 210.676 151.289 210.765 151.392L210.813 151.448Z" fill="#33323a"/>
<path d="M170.443 61.897C170.718 61.8957 170.963 62.0716 171.05 62.3329L171.095 62.472C171.182 62.7332 171.09 63.0203 170.868 63.1831L170.75 63.2698C170.528 63.4326 170.227 63.4341 170.004 63.2735L169.885 63.188C169.661 63.0273 169.567 62.7411 169.65 62.479L169.695 62.3395C169.779 62.0774 170.022 61.8991 170.297 61.8977L170.443 61.897Z" fill="#33323a"/>
<path d="M227.627 179.944C227.734 180.111 227.722 180.328 227.596 180.482L227.529 180.564C227.403 180.718 227.193 180.774 227.008 180.702L226.909 180.663C226.724 180.591 226.606 180.408 226.617 180.209L226.623 180.104C226.634 179.905 226.772 179.737 226.964 179.686L227.067 179.659C227.259 179.608 227.462 179.687 227.57 179.855L227.627 179.944Z" fill="#33323a"/>
<path d="M233.279 215.81C233.555 215.809 233.799 215.985 233.886 216.246L233.932 216.385C234.018 216.646 233.926 216.933 233.704 217.096L233.586 217.183C233.364 217.346 233.063 217.347 232.84 217.186L232.721 217.101C232.497 216.94 232.403 216.654 232.487 216.392L232.531 216.252C232.615 215.99 232.858 215.812 233.133 215.811L233.279 215.81Z" fill="#33323a"/>
<path d="M150.322 251.817C150.597 251.816 150.842 251.992 150.928 252.253L150.974 252.392C151.06 252.653 150.968 252.94 150.747 253.103L150.629 253.19C150.407 253.353 150.105 253.354 149.882 253.193L149.763 253.108C149.54 252.947 149.445 252.661 149.529 252.399L149.573 252.26C149.657 251.997 149.9 251.819 150.175 251.818L150.322 251.817Z" fill="#33323a"/>
<path d="M66.5394 152.749C66.754 152.748 66.9448 152.885 67.0121 153.089L67.0479 153.197C67.1152 153.401 67.0437 153.625 66.8707 153.752L66.7786 153.819C66.6057 153.946 66.3706 153.947 66.1964 153.822L66.1037 153.755C65.9295 153.63 65.8557 153.407 65.921 153.202L65.9558 153.094C66.0211 152.889 66.2106 152.75 66.4252 152.749L66.5394 152.749Z" fill="#161616"/>
<path d="M74.3919 181.764C74.659 181.644 74.9564 181.858 74.9272 182.149L74.9231 182.191C74.8939 182.482 74.5599 182.633 74.322 182.462L74.2882 182.437C74.0502 182.266 74.0867 181.902 74.3539 181.781L74.3919 181.764Z" fill="#161616"/>
<circle cx="265.678" cy="580.328" r="0.706022" fill="#33323a"/>
<circle cx="110.706" cy="562.678" r="0.706022" fill="#33323a"/>
<circle cx="332.397" cy="421.826" r="0.706022" fill="#33323a"/>
<circle cx="420.297" cy="608.216" r="0.706022" fill="#33323a"/>
<circle cx="200.371" cy="648.107" r="0.706022" fill="#33323a"/>
<circle cx="260.736" cy="455.009" r="0.706022" fill="#33323a"/>
<circle cx="403.032" cy="514.131" r="0.706022" fill="#33323a"/>
<circle cx="291.095" cy="493.841" r="0.706022" fill="#33323a"/>
<circle r="0.529517" transform="matrix(-1 0 0 1 286.682 593.566)" fill="#161616"/>
<circle r="0.529517" transform="matrix(-1 0 0 1 114.059 423.768)" fill="#161616"/>
<circle r="0.529517" transform="matrix(-1 0 0 1 215.021 618.277)" fill="#161616"/>
<circle r="6.1777" transform="matrix(-1 0 0 1 195.252 434.711)" fill="#33323a"/>
<circle r="9.00179" transform="matrix(-0.949425 0.313994 0.313994 0.949425 250.417 526.046)" fill="#33323a"/>
<path d="M247.59 517.5C252.31 515.939 257.356 518.36 258.963 523.22C259.771 525.663 259.746 527.444 258.724 529.806C258.337 528.632 244.628 519.223 244.628 519.223C244.628 519.223 245.077 518.331 247.59 517.5Z" fill="#161616"/>
<circle r="1.23554" transform="matrix(-1 0 0 1 285.976 615.1)" fill="#161616"/>
<circle r="0.882528" transform="matrix(-1 0 0 1 217.139 562.854)" fill="#161616"/>
<circle r="1.23554" transform="matrix(-1 0 0 1 175.484 471.071)" fill="#161616"/>
<rect width="0.534004" height="0.534004" rx="0.265094" transform="matrix(-0.91034 -0.41386 -0.41386 0.91034 209.549 508.052)" fill="#33323a"/>
<rect width="1.07121" height="1.07121" rx="0.531777" transform="matrix(-0.91034 -0.41386 -0.41386 0.91034 315.099 614.661)" fill="#33323a"/>
<rect width="1.07121" height="1.07121" rx="0.531777" transform="matrix(-0.91034 -0.41386 -0.41386 0.91034 125.532 672.555)" fill="#33323a"/>
<rect width="1.07121" height="1.07121" rx="0.531777" transform="matrix(-0.91034 -0.41386 -0.41386 0.91034 447.125 442.038)" fill="#33323a"/>
<rect width="0.929335" height="0.929335" rx="0.464667" transform="matrix(-0.816074 0.577948 0.577948 0.816074 276.351 524.034)" fill="#161616"/>
<rect width="1.10615" height="1.10615" rx="0.553073" transform="matrix(-0.862034 0.50685 0.50685 0.862034 249.962 606.074)" fill="#161616"/>
<rect width="1.10615" height="1.10615" rx="0.553073" transform="matrix(-0.91034 -0.41386 -0.41386 0.91034 135.417 645.034)" fill="#161616"/>
<rect width="1.10615" height="1.10615" rx="0.553073" transform="matrix(-0.91034 -0.41386 -0.41386 0.91034 124.827 492.18)" fill="#161616"/>
<path d="M114.748 407.711C114.483 407.591 114.188 407.803 114.217 408.093C114.246 408.383 114.577 408.532 114.814 408.362C115.05 408.192 115.014 407.83 114.748 407.711Z" fill="#33323a"/>
<path d="M133.811 518.203C133.546 518.084 133.25 518.296 133.279 518.585C133.308 518.875 133.64 519.025 133.876 518.855C134.112 518.685 134.076 518.323 133.811 518.203Z" fill="#33323a"/>
<path d="M259.842 554.839C259.712 555.082 259.753 555.38 259.944 555.579L260.045 555.685C260.236 555.883 260.532 555.936 260.78 555.816L260.912 555.753C261.159 555.633 261.302 555.367 261.264 555.094L261.244 554.949C261.207 554.677 260.998 554.459 260.727 554.411L260.583 554.385C260.312 554.336 260.041 554.468 259.911 554.71L259.842 554.839Z" fill="#33323a"/>
<path d="M151.375 423.066C151.1 423.064 150.855 423.24 150.769 423.502L150.723 423.641C150.637 423.902 150.728 424.189 150.95 424.352L151.068 424.439C151.29 424.601 151.592 424.603 151.815 424.442L151.934 424.357C152.157 424.196 152.252 423.91 152.168 423.648L152.123 423.508C152.04 423.246 151.797 423.068 151.522 423.066L151.375 423.066Z" fill="#33323a"/>
<path d="M176.313 551.448C176.224 551.551 176.211 551.7 176.282 551.817L176.32 551.879C176.391 551.995 176.529 552.053 176.661 552.022L176.732 552.005C176.865 551.974 176.963 551.861 176.974 551.725L176.98 551.652C176.991 551.516 176.914 551.388 176.788 551.336L176.721 551.308C176.595 551.255 176.449 551.289 176.36 551.392L176.313 551.448Z" fill="#33323a"/>
<path d="M216.682 461.897C216.407 461.896 216.162 462.072 216.076 462.333L216.03 462.472C215.944 462.733 216.035 463.02 216.257 463.183L216.375 463.27C216.597 463.433 216.899 463.434 217.122 463.273L217.241 463.188C217.464 463.027 217.559 462.741 217.475 462.479L217.43 462.34C217.347 462.077 217.104 461.899 216.829 461.898L216.682 461.897Z" fill="#33323a"/>
<path d="M159.499 579.944C159.391 580.111 159.403 580.328 159.529 580.482L159.596 580.564C159.722 580.718 159.933 580.774 160.118 580.702L160.217 580.663C160.402 580.591 160.52 580.408 160.508 580.209L160.502 580.104C160.491 579.905 160.353 579.737 160.161 579.686L160.059 579.659C159.866 579.608 159.663 579.687 159.556 579.855L159.499 579.944Z" fill="#33323a"/>
<path d="M153.846 615.81C153.571 615.809 153.326 615.985 153.24 616.246L153.194 616.385C153.108 616.646 153.199 616.933 153.421 617.096L153.539 617.183C153.761 617.346 154.062 617.347 154.286 617.186L154.405 617.101C154.628 616.94 154.723 616.654 154.639 616.392L154.594 616.252C154.511 615.99 154.268 615.812 153.993 615.811L153.846 615.81Z" fill="#33323a"/>
<path d="M236.804 651.817C236.529 651.816 236.284 651.992 236.198 652.253L236.152 652.392C236.065 652.653 236.157 652.94 236.379 653.103L236.497 653.19C236.719 653.353 237.02 653.354 237.244 653.193L237.362 653.108C237.586 652.947 237.68 652.661 237.597 652.399L237.552 652.26C237.468 651.997 237.225 651.819 236.95 651.818L236.804 651.817Z" fill="#33323a"/>
<path d="M320.586 552.749C320.371 552.748 320.181 552.885 320.113 553.089L320.077 553.197C320.01 553.401 320.082 553.625 320.255 553.752L320.347 553.819C320.52 553.946 320.755 553.947 320.929 553.822L321.022 553.755C321.196 553.63 321.27 553.407 321.204 553.202L321.17 553.094C321.104 552.889 320.915 552.75 320.7 552.749L320.586 552.749Z" fill="#161616"/>
<path d="M312.734 581.764C312.466 581.644 312.169 581.858 312.198 582.149L312.202 582.191C312.232 582.482 312.566 582.633 312.803 582.462L312.837 582.437C313.075 582.266 313.039 581.902 312.772 581.781L312.734 581.764Z" fill="#161616"/>
<circle cx="1330.68" cy="173.328" r="0.706022" fill="#33323a"/>
<circle cx="1175.71" cy="155.678" r="0.706022" fill="#33323a"/>
<circle cx="1397.4" cy="14.8264" r="0.706022" fill="#33323a"/>
<circle cx="1265.37" cy="241.107" r="0.706022" fill="#33323a"/>
<circle cx="1325.74" cy="48.0095" r="0.706022" fill="#33323a"/>
<circle cx="1356.09" cy="86.8407" r="0.706022" fill="#33323a"/>
<circle r="0.529517" transform="matrix(-1 0 0 1 1351.68 186.566)" fill="#161616"/>
<circle r="0.529517" transform="matrix(-1 0 0 1 1179.06 16.768)" fill="#161616"/>
<circle r="0.529517" transform="matrix(-1 0 0 1 1280.02 211.277)" fill="#161616"/>
<circle r="6.1777" transform="matrix(-1 0 0 1 1345.18 31.1777)" fill="#33323a"/>
<circle r="9.00179" transform="matrix(-0.949425 0.313994 0.313994 0.949425 1225.37 311.373)" fill="#33323a"/>
<circle r="1.23554" transform="matrix(-1 0 0 1 1350.98 208.1)" fill="#161616"/>
<circle r="0.882528" transform="matrix(-1 0 0 1 1282.14 155.854)" fill="#161616"/>
<circle r="1.23554" transform="matrix(-1 0 0 1 1240.48 64.0715)" fill="#161616"/>
<rect width="0.534004" height="0.534004" rx="0.265094" transform="matrix(-0.91034 -0.41386 -0.41386 0.91034 1274.55 101.052)" fill="#33323a"/>
<rect width="1.07121" height="1.07121" rx="0.531777" transform="matrix(-0.91034 -0.41386 -0.41386 0.91034 1380.1 207.661)" fill="#33323a"/>
<rect width="1.07121" height="1.07121" rx="0.531777" transform="matrix(-0.91034 -0.41386 -0.41386 0.91034 1190.53 265.555)" fill="#33323a"/>
<rect width="0.929335" height="0.929335" rx="0.464667" transform="matrix(-0.816074 0.577948 0.577948 0.816074 1341.35 117.034)" fill="#161616"/>
<rect width="1.10615" height="1.10615" rx="0.553073" transform="matrix(-0.862034 0.50685 0.50685 0.862034 1314.96 199.074)" fill="#161616"/>
<rect width="1.10615" height="1.10615" rx="0.553073" transform="matrix(-0.91034 -0.41386 -0.41386 0.91034 1200.42 238.034)" fill="#161616"/>
<rect width="1.10615" height="1.10615" rx="0.553073" transform="matrix(-0.91034 -0.41386 -0.41386 0.91034 1189.83 85.1805)" fill="#161616"/>
<path d="M1179.75 0.7107C1179.48 0.591025 1179.19 0.803409 1179.22 1.09299C1179.25 1.38257 1179.58 1.53217 1179.81 1.36226C1180.05 1.19235 1180.01 0.830375 1179.75 0.7107Z" fill="#33323a"/>
<path d="M1198.81 111.203C1198.55 111.084 1198.25 111.296 1198.28 111.585C1198.31 111.875 1198.64 112.025 1198.88 111.855C1199.11 111.685 1199.08 111.323 1198.81 111.203Z" fill="#33323a"/>
<path d="M1324.84 147.839C1324.71 148.082 1324.75 148.38 1324.94 148.579L1325.04 148.685C1325.24 148.883 1325.53 148.936 1325.78 148.816L1325.91 148.753C1326.16 148.633 1326.3 148.367 1326.26 148.094L1326.24 147.949C1326.21 147.677 1326 147.459 1325.73 147.411L1325.58 147.385C1325.31 147.336 1325.04 147.468 1324.91 147.71L1324.84 147.839Z" fill="#33323a"/>
<path d="M1216.38 16.0658C1216.1 16.0644 1215.86 16.2404 1215.77 16.5016L1215.72 16.6407C1215.64 16.902 1215.73 17.1891 1215.95 17.3519L1216.07 17.4386C1216.29 17.6014 1216.59 17.6029 1216.81 17.4422L1216.93 17.3567C1217.16 17.1961 1217.25 16.9099 1217.17 16.6478L1217.12 16.5083C1217.04 16.2462 1216.8 16.0678 1216.52 16.0665L1216.38 16.0658Z" fill="#33323a"/>
<path d="M1241.31 144.448C1241.22 144.551 1241.21 144.7 1241.28 144.817L1241.32 144.879C1241.39 144.995 1241.53 145.053 1241.66 145.022L1241.73 145.005C1241.86 144.974 1241.96 144.861 1241.97 144.725L1241.98 144.652C1241.99 144.516 1241.91 144.388 1241.79 144.336L1241.72 144.308C1241.59 144.255 1241.45 144.289 1241.36 144.392L1241.31 144.448Z" fill="#33323a"/>
<path d="M1281.68 54.897C1281.41 54.8957 1281.16 55.0716 1281.08 55.3329L1281.03 55.472C1280.94 55.7332 1281.04 56.0203 1281.26 56.1831L1281.38 56.2698C1281.6 56.4326 1281.9 56.4341 1282.12 56.2735L1282.24 56.188C1282.46 56.0273 1282.56 55.7411 1282.48 55.479L1282.43 55.3395C1282.35 55.0774 1282.1 54.8991 1281.83 54.8977L1281.68 54.897Z" fill="#33323a"/>
<path d="M1224.5 172.944C1224.39 173.111 1224.4 173.328 1224.53 173.482L1224.6 173.564C1224.72 173.718 1224.93 173.774 1225.12 173.702L1225.22 173.663C1225.4 173.591 1225.52 173.408 1225.51 173.209L1225.5 173.104C1225.49 172.905 1225.35 172.737 1225.16 172.686L1225.06 172.659C1224.87 172.608 1224.66 172.687 1224.56 172.855L1224.5 172.944Z" fill="#33323a"/>
<path d="M1218.85 208.81C1218.57 208.809 1218.33 208.985 1218.24 209.246L1218.19 209.385C1218.11 209.646 1218.2 209.933 1218.42 210.096L1218.54 210.183C1218.76 210.346 1219.06 210.347 1219.29 210.186L1219.4 210.101C1219.63 209.94 1219.72 209.654 1219.64 209.392L1219.59 209.252C1219.51 208.99 1219.27 208.812 1218.99 208.811L1218.85 208.81Z" fill="#33323a"/>
<path d="M1301.8 244.817C1301.53 244.816 1301.28 244.992 1301.2 245.253L1301.15 245.392C1301.07 245.653 1301.16 245.94 1301.38 246.103L1301.5 246.19C1301.72 246.353 1302.02 246.354 1302.24 246.193L1302.36 246.108C1302.59 245.947 1302.68 245.661 1302.6 245.399L1302.55 245.26C1302.47 244.997 1302.23 244.819 1301.95 244.818L1301.8 244.817Z" fill="#33323a"/>
<path d="M1385.59 145.749C1385.37 145.748 1385.18 145.885 1385.11 146.089L1385.08 146.197C1385.01 146.401 1385.08 146.625 1385.25 146.752L1385.35 146.819C1385.52 146.946 1385.75 146.947 1385.93 146.822L1386.02 146.755C1386.2 146.63 1386.27 146.407 1386.2 146.202L1386.17 146.094C1386.1 145.889 1385.91 145.75 1385.7 145.749L1385.59 145.749Z" fill="#161616"/>
<path d="M1377.73 174.764C1377.47 174.644 1377.17 174.858 1377.2 175.149L1377.2 175.191C1377.23 175.482 1377.57 175.633 1377.8 175.462L1377.84 175.437C1378.08 175.266 1378.04 174.902 1377.77 174.781L1377.73 174.764Z" fill="#161616"/>
</svg>
