<svg width="668" height="900" viewBox="0 0 668 900" fill="none" xmlns="http://www.w3.org/2000/svg">
<path d="M18.4652 190.806C18.3141 189.598 18.1933 189.477 16.9543 189.296C18.163 189.145 18.2839 189.024 18.4652 187.786C18.6163 188.994 18.7372 189.114 19.9762 189.296C18.7674 189.447 18.6465 189.598 18.4652 190.806Z" fill="white" fill-opacity="0.1"/>
<path d="M31.7817 24.3301C31.6306 23.122 31.5098 23.0012 30.2708 22.8199C31.4795 22.6688 31.6004 22.548 31.7817 21.3097C31.9328 22.5179 32.0537 22.6386 33.2927 22.8199C32.0839 22.9708 31.963 23.122 31.7817 24.3301Z" fill="white" fill-opacity="0.1"/>
<path d="M117.229 129.383C117.078 128.174 116.957 128.054 115.718 127.872C116.927 127.721 117.048 127.6 117.229 126.362C117.38 127.57 117.501 127.691 118.74 127.872C117.531 128.023 117.411 128.174 117.229 129.383Z" fill="white" fill-opacity="0.1"/>
<path d="M208.951 38.7029C208.951 39.32 208.45 39.8205 207.832 39.8205C207.215 39.8205 206.714 39.32 206.714 38.7029C206.714 38.0856 207.215 37.5854 207.832 37.5854C208.45 37.5854 208.951 38.0856 208.951 38.7029Z" fill="white" fill-opacity="0.1"/>
<path d="M54.8953 89.2197C54.8953 89.8368 54.3946 90.3373 53.777 90.3373C53.1597 90.3373 52.6589 89.8368 52.6589 89.2197C52.6589 88.6024 53.1597 88.1022 53.777 88.1022C54.3946 88.1022 54.8953 88.6024 54.8953 89.2197Z" fill="white" fill-opacity="0.1"/>
<path d="M60.2496 192.583C60.2496 193.2 59.7491 193.7 59.1315 193.7C58.5142 193.7 58.0135 193.2 58.0135 192.583C58.0135 191.965 58.5142 191.465 59.1315 191.465C59.7491 191.465 60.2496 191.965 60.2496 192.583Z" fill="white" fill-opacity="0.1"/>
<path d="M75.7236 132.287C75.7236 132.904 75.2232 133.405 74.6056 133.405C73.988 133.405 73.4875 132.904 73.4875 132.287C73.4875 131.67 73.988 131.17 74.6056 131.17C75.2232 131.17 75.7236 131.67 75.7236 132.287Z" fill="white" fill-opacity="0.1"/>
<path d="M276.332 22.1235C275.553 22.9019 274.29 22.9019 273.511 22.1235C272.732 21.3449 272.732 20.0827 273.511 19.3043C274.29 18.5257 275.553 18.5257 276.332 19.3043C277.111 20.0827 277.111 21.3449 276.332 22.1235Z" fill="white" fill-opacity="0.15"/>
<path d="M157.904 89.3797C157.904 89.9968 157.403 90.4972 156.786 90.4972C156.168 90.4972 155.668 89.9968 155.668 89.3797C155.668 88.7624 156.168 88.2622 156.786 88.2622C157.403 88.2622 157.904 88.7624 157.904 89.3797Z" fill="white" fill-opacity="0.15"/>
<path d="M95.405 15.0826C95.2539 13.8744 95.133 13.7536 93.894 13.5723C95.1028 13.4212 95.2237 13.3004 95.405 12.0621C95.5561 13.2703 95.677 13.3911 96.916 13.5723C95.7072 13.7232 95.5863 13.8744 95.405 15.0826Z" fill="white" fill-opacity="0.1"/>
<path d="M124.196 93.1308C124.044 91.9226 123.924 91.8019 122.685 91.6206C123.893 91.4695 124.014 91.3487 124.196 90.1104C124.347 91.3186 124.468 91.4393 125.707 91.6206C124.498 91.7715 124.377 91.9226 124.196 93.1308Z" fill="white" fill-opacity="0.1"/>
<path d="M445.222 395.391C445.373 396.599 445.494 396.72 446.733 396.901C445.524 397.052 445.403 397.173 445.222 398.411C445.071 397.203 444.95 397.082 443.711 396.901C444.92 396.75 445.041 396.599 445.222 395.391Z" fill="white" fill-opacity="0.1"/>
<path d="M528.82 151.605C528.971 152.813 529.092 152.933 530.331 153.115C529.122 153.266 529.001 153.387 528.82 154.625C528.669 153.417 528.548 153.296 527.309 153.115C528.518 152.964 528.639 152.813 528.82 151.605Z" fill="white" fill-opacity="0.1"/>
<path d="M515.503 318.081C515.654 319.289 515.775 319.41 517.014 319.591C515.806 319.742 515.685 319.863 515.503 321.101C515.352 319.893 515.231 319.773 513.992 319.591C515.201 319.44 515.322 319.289 515.503 318.081Z" fill="white" fill-opacity="0.1"/>
<path d="M430.056 213.028C430.207 214.236 430.328 214.357 431.567 214.539C430.358 214.69 430.237 214.81 430.056 216.049C429.905 214.841 429.784 214.72 428.545 214.539C429.754 214.388 429.874 214.236 430.056 213.028Z" fill="white" fill-opacity="0.1"/>
<path d="M554.049 397.294C554.049 396.677 554.549 396.176 555.167 396.176C555.785 396.176 556.285 396.677 556.285 397.294C556.285 397.911 555.785 398.411 555.167 398.411C554.549 398.411 554.049 397.911 554.049 397.294Z" fill="white" fill-opacity="0.1"/>
<path d="M338.334 303.708C338.334 303.091 338.835 302.591 339.453 302.591C340.07 302.591 340.571 303.091 340.571 303.708C340.571 304.326 340.07 304.826 339.453 304.826C338.835 304.826 338.334 304.326 338.334 303.708Z" fill="white" fill-opacity="0.1"/>
<path d="M492.39 253.191C492.39 252.574 492.89 252.074 493.508 252.074C494.125 252.074 494.626 252.574 494.626 253.191C494.626 253.808 494.125 254.309 493.508 254.309C492.89 254.309 492.39 253.808 492.39 253.191Z" fill="white" fill-opacity="0.1"/>
<path d="M487.035 149.828C487.035 149.211 487.536 148.71 488.154 148.71C488.771 148.71 489.272 149.211 489.272 149.828C489.272 150.445 488.771 150.945 488.154 150.945C487.536 150.945 487.035 150.445 487.035 149.828Z" fill="white" fill-opacity="0.1"/>
<path d="M471.561 210.124C471.561 209.507 472.062 209.006 472.679 209.006C473.297 209.006 473.798 209.507 473.798 210.124C473.798 210.741 473.297 211.241 472.679 211.241C472.062 211.241 471.561 210.741 471.561 210.124Z" fill="white" fill-opacity="0.1"/>
<path d="M264.897 385.347C265.905 384.901 267.083 385.356 267.529 386.363C267.974 387.369 267.519 388.547 266.512 388.993C265.505 389.438 264.327 388.984 263.881 387.977C263.435 386.97 263.89 385.793 264.897 385.347Z" fill="white" fill-opacity="0.15"/>
<path d="M419.07 368.675C419.07 367.574 419.963 366.682 421.064 366.682C422.166 366.682 423.059 367.574 423.059 368.675C423.059 369.776 422.166 370.669 421.064 370.669C419.963 370.669 419.07 369.776 419.07 368.675Z" fill="white" fill-opacity="0.15"/>
<path d="M270.953 320.288C271.732 319.509 272.995 319.509 273.774 320.288C274.553 321.066 274.553 322.328 273.774 323.107C272.995 323.885 271.732 323.885 270.953 323.107C270.174 322.328 270.174 321.066 270.953 320.288Z" fill="white" fill-opacity="0.15"/>
<path d="M296.166 369.551C296.166 368.934 296.666 368.434 297.284 368.434C297.901 368.434 298.402 368.934 298.402 369.551C298.402 370.168 297.901 370.669 297.284 370.669C296.666 370.669 296.166 370.168 296.166 369.551Z" fill="white" fill-opacity="0.15"/>
<path d="M389.381 253.031C389.381 252.414 389.882 251.914 390.499 251.914C391.117 251.914 391.617 252.414 391.617 253.031C391.617 253.648 391.117 254.149 390.499 254.149C389.882 254.149 389.381 253.648 389.381 253.031Z" fill="white" fill-opacity="0.15"/>
<path d="M451.88 327.329C452.031 328.537 452.152 328.658 453.391 328.839C452.182 328.99 452.061 329.111 451.88 330.349C451.729 329.141 451.608 329.02 450.369 328.839C451.578 328.688 451.699 328.537 451.88 327.329Z" fill="white" fill-opacity="0.1"/>
<path d="M346.52 375.417C346.671 376.626 346.792 376.746 348.031 376.928C346.822 377.079 346.701 377.2 346.52 378.438C346.369 377.23 346.248 377.109 345.009 376.928C346.217 376.777 346.338 376.626 346.52 375.417Z" fill="white" fill-opacity="0.1"/>
<path d="M423.089 249.28C423.241 250.488 423.361 250.609 424.6 250.79C423.392 250.941 423.271 251.062 423.089 252.3C422.938 251.092 422.818 250.972 421.579 250.79C422.787 250.639 422.908 250.488 423.089 249.28Z" fill="white" fill-opacity="0.1"/>
<path d="M490.782 364.32C490.933 365.528 491.054 365.649 492.293 365.831C491.084 365.982 490.963 366.102 490.782 367.341C490.631 366.133 490.51 366.012 489.271 365.831C490.48 365.68 490.6 365.528 490.782 364.32Z" fill="white" fill-opacity="0.1"/>
<path d="M582.659 598.202C582.809 596.994 582.93 596.873 584.169 596.692C582.961 596.541 582.84 596.42 582.659 595.181C582.507 596.39 582.386 596.51 581.148 596.692C582.356 596.843 582.477 596.994 582.659 598.202Z" fill="white" fill-opacity="0.1"/>
<path d="M666.302 740.362C666.453 739.154 666.574 739.033 667.813 738.852C666.604 738.7 666.484 738.58 666.302 737.341C666.151 738.55 666.03 738.67 664.791 738.852C666 739.003 666.121 739.154 666.302 740.362Z" fill="white" fill-opacity="0.1"/>
<path d="M570.063 732.025C570.214 730.816 570.335 730.696 571.574 730.514C570.365 730.363 570.244 730.243 570.063 729.004C569.912 730.212 569.791 730.333 568.552 730.514C569.76 730.665 569.881 730.816 570.063 732.025Z" fill="white" fill-opacity="0.1"/>
<path d="M405.231 640.139C405.382 638.931 405.503 638.81 406.742 638.629C405.533 638.478 405.412 638.357 405.231 637.119C405.08 638.327 404.959 638.448 403.72 638.629C404.929 638.78 405.05 638.931 405.231 640.139Z" fill="white" fill-opacity="0.1"/>
<path d="M493.944 544.196C494.095 542.988 494.216 542.867 495.455 542.686C494.246 542.534 494.125 542.414 493.944 541.175C493.793 542.383 493.672 542.504 492.433 542.686C493.641 542.836 493.762 542.988 493.944 544.196Z" fill="white" fill-opacity="0.1"/>
<path d="M513.152 590.203C513.152 590.82 513.653 591.32 514.27 591.32C514.888 591.32 515.388 590.82 515.388 590.203C515.388 589.585 514.888 589.085 514.27 589.085C513.653 589.085 513.152 589.585 513.152 590.203Z" fill="white" fill-opacity="0.1"/>
<path d="M347.061 698.068C347.061 698.685 347.561 699.185 348.179 699.185C348.796 699.185 349.297 698.685 349.297 698.068C349.297 697.45 348.796 696.95 348.179 696.95C347.561 696.95 347.061 697.45 347.061 698.068Z" fill="white" fill-opacity="0.1"/>
<path d="M603.773 622.607C603.773 623.224 604.274 623.725 604.892 623.725C605.509 623.725 606.01 623.224 606.01 622.607C606.01 621.99 605.509 621.49 604.892 621.49C604.274 621.49 603.773 621.99 603.773 622.607Z" fill="white" fill-opacity="0.1"/>
<path d="M392.594 540.118C392.594 540.735 393.095 541.235 393.713 541.235C394.33 541.235 394.831 540.735 394.831 540.118C394.831 539.5 394.33 539 393.713 539C393.095 539 392.594 539.5 392.594 540.118Z" fill="white" fill-opacity="0.1"/>
<path d="M630.406 665.886C630.406 666.503 630.907 667.003 631.525 667.003C632.142 667.003 632.643 666.503 632.643 665.886C632.643 665.269 632.142 664.768 631.525 664.768C630.907 664.768 630.406 665.269 630.406 665.886Z" fill="white" fill-opacity="0.1"/>
<path d="M595.618 755.133C595.618 755.751 596.118 756.251 596.736 756.251C597.353 756.251 597.854 755.751 597.854 755.133C597.854 754.516 597.353 754.016 596.736 754.016C596.118 754.016 595.618 754.516 595.618 755.133Z" fill="white" fill-opacity="0.1"/>
<path d="M575.599 646.651C575.599 647.268 576.099 647.769 576.717 647.769C577.335 647.769 577.835 647.268 577.835 646.651C577.835 646.034 577.335 645.534 576.717 645.534C576.099 645.534 575.599 646.034 575.599 646.651Z" fill="white" fill-opacity="0.1"/>
<path d="M591.275 690.136C592.282 690.582 593.46 690.127 593.906 689.12C594.352 688.114 593.896 686.936 592.889 686.49C591.882 686.045 590.704 686.5 590.258 687.506C589.812 688.513 590.268 689.69 591.275 690.136Z" fill="white" fill-opacity="0.15"/>
<path d="M444.571 684.59C444.571 685.691 445.464 686.584 446.565 686.584C447.667 686.584 448.56 685.691 448.56 684.59C448.56 683.489 447.667 682.597 446.565 682.597C445.464 682.597 444.571 683.489 444.571 684.59Z" fill="white" fill-opacity="0.15"/>
<path d="M510.71 651.624C511.489 652.402 512.752 652.402 513.531 651.624C514.31 650.845 514.31 649.583 513.531 648.805C512.752 648.026 511.489 648.026 510.71 648.805C509.931 649.583 509.931 650.845 510.71 651.624Z" fill="white" fill-opacity="0.15"/>
<path d="M582.627 548.997C582.627 549.614 583.128 550.114 583.745 550.114C584.363 550.114 584.863 549.614 584.863 548.997C584.863 548.38 584.363 547.879 583.745 547.879C583.128 547.879 582.627 548.38 582.627 548.997Z" fill="white" fill-opacity="0.15"/>
<path d="M460.251 580.068C460.251 580.685 460.752 581.186 461.369 581.186C461.987 581.186 462.487 580.685 462.487 580.068C462.487 579.451 461.987 578.951 461.369 578.951C460.752 578.951 460.251 579.451 460.251 580.068Z" fill="white" fill-opacity="0.15"/>
<path d="M448.673 754.061C448.825 752.852 448.945 752.732 450.184 752.55C448.976 752.399 448.855 752.278 448.673 751.04C448.522 752.248 448.402 752.369 447.163 752.55C448.371 752.701 448.492 752.852 448.673 754.061Z" fill="white" fill-opacity="0.1"/>
<path d="M361.149 611.148C361.3 609.94 361.42 609.819 362.659 609.638C361.451 609.487 361.33 609.366 361.149 608.128C360.997 609.336 360.877 609.457 359.638 609.638C360.846 609.789 360.967 609.94 361.149 611.148Z" fill="white" fill-opacity="0.1"/>
<path d="M305.51 663.768C305.661 662.56 305.782 662.439 307.021 662.258C305.812 662.107 305.692 661.986 305.51 660.747C305.359 661.956 305.238 662.076 303.999 662.258C305.208 662.409 305.329 662.56 305.51 663.768Z" fill="white" fill-opacity="0.1"/>
<path d="M391.3 775.957C391.452 777.165 391.572 777.286 392.811 777.467C391.603 777.618 391.482 777.739 391.3 778.977C391.149 777.769 391.028 777.648 389.789 777.467C390.998 777.316 391.119 777.165 391.3 775.957Z" fill="white" fill-opacity="0.1"/>
<path d="M295.061 784.294C295.212 785.502 295.333 785.623 296.572 785.804C295.363 785.956 295.242 786.076 295.061 787.315C294.91 786.106 294.789 785.986 293.55 785.804C294.759 785.654 294.879 785.502 295.061 784.294Z" fill="white" fill-opacity="0.1"/>
<path d="M95.7641 718C95.9152 719.208 96.0361 719.329 97.2751 719.51C96.0663 719.661 95.9454 719.782 95.7641 721.02C95.613 719.812 95.4921 719.691 94.2532 719.51C95.4619 719.359 95.5828 719.208 95.7641 718Z" fill="white" fill-opacity="0.1"/>
<path d="M72.059 818.251C72.059 817.634 72.5595 817.134 73.1771 817.134C73.7947 817.134 74.2951 817.634 74.2951 818.251C74.2951 818.869 73.7947 819.369 73.1771 819.369C72.5595 819.369 72.059 818.869 72.059 818.251Z" fill="white" fill-opacity="0.1"/>
<path d="M328.772 893.712C328.772 893.095 329.272 892.594 329.89 892.594C330.507 892.594 331.008 893.095 331.008 893.712C331.008 894.329 330.507 894.829 329.89 894.829C329.272 894.829 328.772 894.329 328.772 893.712Z" fill="white" fill-opacity="0.1"/>
<path d="M355.405 850.433C355.405 849.816 355.905 849.315 356.523 849.315C357.14 849.315 357.641 849.816 357.641 850.433C357.641 851.05 357.14 851.55 356.523 851.55C355.905 851.55 355.405 851.05 355.405 850.433Z" fill="white" fill-opacity="0.1"/>
<path d="M320.616 761.185C320.616 760.568 321.116 760.068 321.734 760.068C322.351 760.068 322.852 760.568 322.852 761.185C322.852 761.803 322.351 762.303 321.734 762.303C321.116 762.303 320.616 761.803 320.616 761.185Z" fill="white" fill-opacity="0.1"/>
<path d="M300.597 869.668C300.597 869.05 301.098 868.55 301.715 868.55C302.333 868.55 302.833 869.05 302.833 869.668C302.833 870.285 302.333 870.785 301.715 870.785C301.098 870.785 300.597 870.285 300.597 869.668Z" fill="white" fill-opacity="0.1"/>
<path d="M316.273 826.183C317.28 825.737 318.458 826.192 318.904 827.199C319.35 828.205 318.895 829.383 317.887 829.828C316.88 830.274 315.702 829.819 315.256 828.813C314.81 827.806 315.266 826.629 316.273 826.183Z" fill="white" fill-opacity="0.15"/>
<path d="M169.569 831.728C169.569 830.627 170.462 829.735 171.563 829.735C172.665 829.735 173.558 830.627 173.558 831.728C173.558 832.829 172.665 833.722 171.563 833.722C170.462 833.722 169.569 832.829 169.569 831.728Z" fill="white" fill-opacity="0.15"/>
<path d="M235.709 864.695C236.487 863.917 237.75 863.917 238.529 864.695C239.308 865.474 239.308 866.736 238.529 867.514C237.75 868.293 236.487 868.293 235.709 867.514C234.93 866.736 234.93 865.474 235.709 864.695Z" fill="white" fill-opacity="0.15"/>
<path d="M173.672 762.258C173.823 763.466 173.944 763.587 175.183 763.769C173.974 763.92 173.853 764.04 173.672 765.279C173.521 764.071 173.4 763.95 172.161 763.769C173.369 763.618 173.49 763.466 173.672 762.258Z" fill="white" fill-opacity="0.1"/>
<path d="M32.5108 752.031C32.6619 753.239 32.7827 753.36 34.0217 753.541C32.813 753.692 32.6921 753.813 32.5108 755.052C32.3597 753.843 32.2388 753.723 30.9998 753.541C32.2086 753.39 32.3295 753.239 32.5108 752.031Z" fill="white" fill-opacity="0.1"/>
</svg>
