<svg width="208" height="48" viewBox="0 0 208 48" fill="none" xmlns="http://www.w3.org/2000/svg">
<path fill-rule="evenodd" clip-rule="evenodd" d="M11 0C4.92487 0 0 4.92487 0 11C0 17.0751 4.92487 22 11 22H26.9716C28.2078 22 29.21 23.0022 29.21 24.2384C29.21 25.4746 28.2078 26.4768 26.9716 26.4768H10.7616C4.81818 26.4768 5.49316e-05 31.2949 5.49316e-05 37.2384C5.49316e-05 43.1819 4.81818 48 10.7616 48H197.238C203.182 48 208 43.1819 208 37.2384C208 31.2949 203.182 26.4768 197.238 26.4768H35.4016C34.1654 26.4768 33.1632 25.4746 33.1632 24.2384C33.1632 23.0022 34.1654 22 35.4016 22H67C73.0751 22 78 17.0751 78 11C78 4.92487 73.0751 0 67 0H11ZM124.51 42.3343C124.851 42.398 125.381 42.4298 126.103 42.4298H131.39C132.399 42.4298 133.107 42.1833 133.516 41.6929C133.926 41.2025 134.13 40.557 134.13 39.7565V39.5007C134.13 38.7864 134.002 38.2443 133.748 37.8758C133.494 37.5074 133.128 37.2543 132.649 37.1151C132.172 36.9759 131.593 36.907 130.913 36.907H127.377C126.921 36.907 126.594 36.8195 126.398 36.6433C126.201 36.467 126.103 36.2032 126.103 35.8507V35.579C126.113 35.2795 126.204 35.0316 126.374 34.8342C126.543 34.638 126.872 34.5386 127.361 34.5386L127.536 34.5545C129.182 34.5545 130.494 34.5731 131.471 34.6102C132.448 34.6486 133.075 34.6831 133.35 34.7149L133.668 33.3696C133.668 33.2848 133.446 33.204 132.999 33.1297C132.553 33.0542 131.969 33.0171 131.247 33.0171H126.914C126.171 33.0171 125.586 33.1377 125.162 33.3776C124.737 33.6188 124.437 33.9356 124.262 34.3305C124.087 34.7255 124 35.1575 124 35.6267V35.8825C124 36.7904 124.244 37.4438 124.733 37.844C125.222 38.2443 126.003 38.4444 127.075 38.4444H130.77C131.3 38.4444 131.643 38.5239 131.797 38.6843C131.951 38.8447 132.028 39.1111 132.028 39.4848V39.8056C132.028 40.2005 131.932 40.4802 131.741 40.6458C131.551 40.8115 131.226 40.8937 130.77 40.8937H130.468C128.769 40.8937 127.433 40.8751 126.461 40.838C125.49 40.7996 124.881 40.7598 124.637 40.7174L124 42.1104C124 42.1952 124.171 42.2707 124.51 42.3343ZM141.3 42.4298V34.2988L141.141 33.0026H148.197C148.877 33.0026 149.41 33.094 149.798 33.2743C150.185 33.4558 150.473 33.6931 150.658 33.986C150.844 34.2802 150.963 34.5917 151.016 34.923C151.069 35.2543 151.095 35.5685 151.095 35.868V36.813C151.095 37.0582 151.058 37.3338 150.984 37.6373C150.91 37.9408 150.772 38.2351 150.571 38.5174C150.369 38.7997 150.076 39.0356 149.695 39.2211C149.313 39.408 148.813 39.5008 148.197 39.5008H146.572C145.903 39.5008 145.278 39.4849 144.701 39.4531C144.121 39.4213 143.689 39.3948 143.403 39.3736V42.4311H141.301L141.3 42.4298ZM143.402 37.9634H147.734C148.213 37.9634 148.542 37.8454 148.722 37.6108C148.902 37.3762 148.992 37.0939 148.992 36.7626V35.754C148.992 35.4121 148.902 35.1245 148.722 34.8899C148.542 34.6553 148.217 34.5373 147.75 34.5373H143.402V37.9634ZM160.54 33.0171L155.873 42.4298H158.198L159.233 40.3967H164.936L165.876 42.4298H168.329L163.678 33.0171H160.54ZM164.348 38.8288H159.81L162.007 34.4591H162.166L164.348 38.8288ZM176.819 42.4299C176.065 42.4299 175.475 42.3239 175.051 42.1092C174.626 41.8958 174.329 41.5764 174.159 41.1483C173.989 40.7215 173.905 40.194 173.905 39.5632V35.994C173.905 34.9695 174.133 34.214 174.59 33.7289C175.046 33.2439 175.789 33 176.82 33H181.614C182.347 33 182.906 33.0398 183.295 33.1206C183.682 33.2001 183.877 33.2836 183.877 33.3685L183.559 34.6965C183.378 34.6646 182.844 34.6302 181.958 34.5918C181.071 34.5546 179.784 34.5361 178.095 34.5361H177.283C176.433 34.5361 176.009 34.9151 176.009 35.6732V39.7553C176.009 40.1185 176.102 40.3981 176.288 40.5956C176.473 40.7931 176.806 40.8912 177.283 40.8912H177.936C179.699 40.8912 181.067 40.8726 182.038 40.8355C183.01 40.7984 183.613 40.7586 183.846 40.7149L184.5 41.7712C184.5 41.8242 184.412 41.9051 184.237 42.0111C184.062 42.1185 183.74 42.2139 183.274 42.2987C182.806 42.3835 182.132 42.4273 181.251 42.4273H176.823L176.819 42.4299ZM190.868 33.0171V42.4298H199.565C200.266 42.4298 200.761 42.4112 201.047 42.3741C201.333 42.3357 201.476 42.2959 201.476 42.2535L200.839 40.8924H192.97V38.3477H198.928V36.7625H192.97V34.5532H200.775V33.0171H190.868ZM69 34.5361L69.0159 42.4272H71.5159H76.5159L76.0159 40.5H71.5159V33H69V34.5361ZM82.8041 33.0145V42.4272H84.9061V33.0145H82.8041ZM91.9959 42.4114V34.2803L91.8369 33H94.2583L98.6027 39.484V33L100.775 33V37.8349V42.4114L98.8295 42.4114H98.1027L95.0601 37.8349L94.2583 36.442H94.0992V42.4127H91.9972L91.9959 42.4114ZM107.459 33.0145V42.4272H116.156C116.858 42.4272 117.352 42.4086 117.638 42.3715C117.924 42.3331 118.068 42.2933 118.068 42.2509L117.43 40.8898H109.561V38.3451H115.519V36.76H109.561V34.5506H117.367V33.0145H107.459ZM15.5119 12.0153L17.7252 10.0106H17.7276C17.8447 9.90578 17.9294 9.76743 17.971 9.61289C18.0126 9.45834 18.0094 9.29448 17.9616 9.14185C17.9139 8.98922 17.8238 8.85462 17.7026 8.75492C17.5815 8.65522 17.4346 8.59487 17.2806 8.58144L14.3636 8.31914L13.2211 5.49954C13.1617 5.35159 13.0613 5.22522 12.9328 5.13632C12.8042 5.04743 12.6532 5 12.4988 5C12.3443 5 12.1933 5.04743 12.0648 5.13632C11.9362 5.22522 11.8359 5.35159 11.7764 5.49954L10.6374 8.31914L7.71944 8.58144C7.56536 8.59487 7.41854 8.65522 7.29738 8.75492C7.17622 8.85462 7.08612 8.98922 7.03837 9.14185C6.99063 9.29448 6.98736 9.45834 7.02899 9.61289C7.07062 9.76743 7.15529 9.90578 7.27237 10.0106L9.48611 12.0183L8.8241 14.9999C8.78901 15.1559 8.79903 15.3192 8.85288 15.4694C8.90673 15.6195 9.00204 15.7499 9.12688 15.8441C9.25173 15.9384 9.40057 15.9923 9.5548 15.9992C9.70903 16.0062 9.86181 15.9657 9.99403 15.883L12.4968 14.3042L15.005 15.883C15.1372 15.9657 15.29 16.0062 15.4442 15.9992C15.5984 15.9923 15.7473 15.9384 15.8721 15.8441C15.997 15.7499 16.0923 15.6195 16.1461 15.4694C16.2 15.3192 16.21 15.1559 16.1749 14.9999L15.5119 12.0153ZM10.1417 34.5361L10.1576 42.4273H12.2597V34.5361H16.4173V33H6V34.5361H10.1417ZM22.7882 33.0145V42.4272H24.8902V33.0145H22.7882ZM32.3773 42.4274V34.2963L32.2183 33.016H34.6397L38.2394 39.4188L41.9663 33.016H44.116V42.4287H42.014V36.458H41.839L41.2175 37.8509L39.2109 41.4691H37.2838L35.2772 37.8509L34.6397 36.458H34.4807V42.4287H32.3786L32.3773 42.4274ZM51.4436 33.0145V42.4272H60.1405C60.8417 42.4272 61.336 42.4086 61.6223 42.3715C61.9086 42.3331 62.0517 42.2933 62.0517 42.2509L61.4142 40.8898H53.5456V38.3451H59.5031V36.76H53.5456V34.5506H61.3506V33.0145H51.4436ZM29.4733 8.23251V10.5086V10.5099L26.1766 11.7353L29.4733 12.9668V15.2454L23.0418 12.9069H23.0285V10.5722H23.0418L29.4733 8.23251ZM66.9427 15.1244V12.8495L70.2367 11.6253L66.9427 10.4011V8.12501L73.3649 10.4622H73.3808V12.7994H73.3649L66.9427 15.1244ZM64.1848 4.90814L60.4076 16.7628H62.6506L66.4277 4.90814H64.1848ZM39.8586 10.3193C39.8984 9.39204 39.5627 8.48794 38.9243 7.80254H38.9256C38.6098 7.47878 38.2262 7.22465 37.8015 7.05727C37.3768 6.88989 36.9216 6.81414 36.4637 6.83247C35.9726 6.8117 35.4829 6.88989 35.0237 7.06094C34.5645 7.23198 34.1451 7.49344 33.7934 7.8282V7.07926H31.5505V15.3688H33.7934V11.6975C33.7934 9.79277 34.4955 8.84103 35.8997 8.84103C36.1346 8.83125 36.3695 8.87401 36.5858 8.96565C36.8008 9.05728 36.9932 9.19656 37.1472 9.37127C37.475 9.77078 37.6422 10.2729 37.6157 10.7836V15.3688H39.8586V10.3193ZM42.7134 3.63158V15.4862H44.9564V3.63158H42.7134ZM55.7584 15.0513H57.6284L60.7751 6.74702H58.3782L56.6117 11.7293L54.7922 6.74702H53.0429L51.2234 11.7134L49.4569 6.74702H47.06L50.2041 15.0513H52.0728L53.9242 10.1679L55.7584 15.0513Z" fill="url(#paint0_linear_405_757)"/>
<defs>
<linearGradient id="paint0_linear_405_757" x1="27" y1="-40" x2="227.189" y2="172.523" gradientUnits="userSpaceOnUse">
<stop offset="0.251308" stop-color="#E53170"/>
<stop offset="0.623787" stop-color="#FF8906"/>
<stop offset="1" stop-color="#F25F4C"/>
</linearGradient>
</defs>
</svg>
